<svg width="20" height="20" viewBox="0 0 20 20" fill="none" xmlns="http://www.w3.org/2000/svg">
<path fill-rule="evenodd" clip-rule="evenodd" d="M5.42226 17.3203C5.84426 17.3203 6.18726 17.6633 6.18726 18.0853C6.18726 18.5073 5.84426 18.8493 5.42226 18.8493C5.00026 18.8493 4.65826 18.5073 4.65826 18.0853C4.65826 17.6633 5.00026 17.3203 5.42226 17.3203Z" stroke="black" stroke-width="1.5" stroke-linecap="round" stroke-linejoin="round"/>
<path fill-rule="evenodd" clip-rule="evenodd" d="M16.6747 17.3203C17.0967 17.3203 17.4397 17.6633 17.4397 18.0853C17.4397 18.5073 17.0967 18.8493 16.6747 18.8493C16.2527 18.8493 15.9097 18.5073 15.9097 18.0853C15.9097 17.6633 16.2527 17.3203 16.6747 17.3203Z" stroke="black" stroke-width="1.5" stroke-linecap="round" stroke-linejoin="round"/>
<path d="M0.749878 0.75L2.82988 1.11L3.79288 12.583C3.87088 13.518 4.65188 14.236 5.58988 14.236H16.5019C17.3979 14.236 18.1579 13.578 18.2869 12.69L19.2359 6.132C19.3529 5.323 18.7259 4.599 17.9089 4.599H3.16388" stroke="black" stroke-width="1.5" stroke-linecap="round" stroke-linejoin="round"/>
<path d="M12.1254 8.29492H14.8984" stroke="black" stroke-width="1.5" stroke-linecap="round" stroke-linejoin="round"/>
</svg>
