<svg width="154" height="48" viewBox="0 0 154 48" fill="none" xmlns="http://www.w3.org/2000/svg">
<path d="M21 18V21.5C21.1326 21.5 21.2598 21.5527 21.3535 21.6464C21.4473 21.7402 21.5 21.8674 21.5 22C21.5 22.1326 21.4473 22.2598 21.3535 22.3536C21.2598 22.4473 21.1326 22.5 21 22.5C20.8674 22.5 20.7402 22.4473 20.6464 22.3536C20.5527 22.2598 20.5 22.1326 20.5 22C20.5 21.8674 20.5527 21.7402 20.6464 21.6464C20.7402 21.5527 20.8674 21.5 21 21.5V18H11V21.5C11.1326 21.5 11.2598 21.5527 11.3535 21.6464C11.4473 21.7402 11.5 21.8674 11.5 22C11.5 22.1326 11.4473 22.2598 11.3535 22.3536C11.2598 22.4473 11.1326 22.5 11 22.5C10.8674 22.5 10.7402 22.4473 10.6464 22.3536C10.5527 22.2598 10.5 22.1326 10.5 22C10.5 21.8674 10.5527 21.7402 10.6464 21.6464C10.7402 21.5527 10.8674 21.5 11 21.5V18H7.35065C6.98002 17.9999 6.62248 18.1371 6.34698 18.385C6.07148 18.6329 5.89752 18.9741 5.85865 19.3427L4.17331 35.3427C4.15125 35.5519 4.17344 35.7634 4.23845 35.9635C4.30347 36.1636 4.40984 36.3478 4.55068 36.5041C4.69151 36.6604 4.86365 36.7853 5.05591 36.8708C5.24817 36.9562 5.45626 37.0002 5.66665 37H26.3333C27.2253 37 27.9186 36.2293 27.8253 35.3427L26.1413 19.3427C26.0613 18.58 25.4173 18 24.6493 18H21Z" fill="#1E90FF"/>
<path d="M21 22V18M11 22V18M11 21.5C10.8674 21.5 10.7402 21.5527 10.6464 21.6464C10.5527 21.7402 10.5 21.8674 10.5 22C10.5 22.1326 10.5527 22.2598 10.6464 22.3536C10.7402 22.4473 10.8674 22.5 11 22.5C11.1326 22.5 11.2598 22.4473 11.3535 22.3536C11.4473 22.2598 11.5 22.1326 11.5 22C11.5 21.8674 11.4473 21.7402 11.3535 21.6464C11.2598 21.5527 11.1326 21.5 11 21.5ZM11 21.5V18M21 21.5C20.8674 21.5 20.7402 21.5527 20.6464 21.6464C20.5527 21.7402 20.5 21.8674 20.5 22C20.5 22.1326 20.5527 22.2598 20.6464 22.3536C20.7402 22.4473 20.8674 22.5 21 22.5C21.1326 22.5 21.2598 22.4473 21.3535 22.3536C21.4473 22.2598 21.5 22.1326 21.5 22C21.5 21.8674 21.4473 21.7402 21.3535 21.6464C21.2598 21.5527 21.1326 21.5 21 21.5ZM21 21.5V18M21 18H11M21 18H24.6493C25.4173 18 26.0613 18.58 26.1413 19.3427L27.8253 35.3427C27.9186 36.2293 27.2253 37 26.3333 37H5.66665C5.45626 37.0002 5.24817 36.9562 5.05591 36.8708C4.86365 36.7853 4.69151 36.6604 4.55068 36.5041C4.40984 36.3478 4.30347 36.1636 4.23845 35.9635C4.17344 35.7634 4.15125 35.5519 4.17331 35.3427L5.85865 19.3427C5.89752 18.9741 6.07148 18.6329 6.34698 18.385C6.62248 18.1371 6.98002 17.9999 7.35065 18H11M21 18V16C21 14.6739 20.4732 13.4021 19.5355 12.4645C18.5978 11.5268 17.3261 11 16 11C14.6739 11 13.4021 11.5268 12.4644 12.4645C11.5268 13.4021 11 14.6739 11 16V18" stroke="#1E90FF" stroke-width="2" stroke-linecap="round" stroke-linejoin="round"/>
<path d="M58.144 12.536V16.92H52.192V35H46.72V16.92H40.768V12.536H58.144ZM74.8743 31.032H66.4903L65.1463 35H59.4183L67.5463 12.536H73.8823L82.0103 35H76.2183L74.8743 31.032ZM73.4663 26.808L70.6823 18.584L67.9303 26.808H73.4663ZM104.58 35H99.108L89.956 21.144V35H84.484V12.536H89.956L99.108 26.456V12.536H104.58V35ZM116.963 12.536C119.331 12.536 121.4 13.0053 123.171 13.944C124.941 14.8827 126.307 16.2053 127.267 17.912C128.248 19.5973 128.739 21.5493 128.739 23.768C128.739 25.9653 128.248 27.9173 127.267 29.624C126.307 31.3307 124.931 32.6533 123.139 33.592C121.368 34.5307 119.309 35 116.963 35H108.547V12.536H116.963ZM116.611 30.264C118.68 30.264 120.291 29.6987 121.443 28.568C122.595 27.4373 123.171 25.8373 123.171 23.768C123.171 21.6987 122.595 20.088 121.443 18.936C120.291 17.784 118.68 17.208 116.611 17.208H114.019V30.264H116.611ZM145.781 31.032H137.397L136.053 35H130.325L138.453 12.536H144.789L152.917 35H147.125L145.781 31.032ZM144.373 26.808L141.589 18.584L138.837 26.808H144.373Z" fill="black"/>
</svg>
